<svg xmlns="http://www.w3.org/2000/svg" viewBox="0 0 512 512">
  <rect width="512" height="512" rx="120" fill="#050505"/>
  <rect x="54" y="54" width="404" height="404" rx="92" fill="#ffffff"/>
  <path d="M183 331c-24 0-44-20-44-44s20-44 44-44c9 0 17 3 24 7l34-28-34-28a43 43 0 0 1-24 7c-24 0-44-20-44-44s20-44 44-44 44 20 44 44c0 7-2 14-5 20l43 36 80-66c13-11 32 6 21 20l-78 89 78 89c11 14-8 31-21 20l-80-66-43 36c3 6 5 13 5 20 0 24-20 44-44 44Zm0-147c15 0 27-12 27-27s-12-27-27-27-27 12-27 27 12 27 27 27Zm0 130c15 0 27-12 27-27s-12-27-27-27-27 12-27 27 12 27 27 27Z" fill="#050505"/>
</svg>
